<svg width="214" height="372" viewBox="0 0 214 372" fill="none" xmlns="http://www.w3.org/2000/svg">
<path fill-rule="evenodd" clip-rule="evenodd" d="M427.999 185.706L427.893 185.739C412.942 142.948 378.919 128.757 376.442 127.817C378.117 116.145 377.854 104.277 375.664 92.6906C366.376 84.8647 355.835 78.6587 344.485 74.3332C345.253 68.781 348.532 34.9171 320.589 1.87819L320.577 1.98115C275.628 -6.64129 246.304 15.5808 244.25 17.1172C235 9.93502 224.646 4.29909 213.592 0.428631L213.58 0.404561C202.145 4.47004 191.471 10.4205 182.001 18.0092C177.706 14.7075 149.703 -5.23854 106.714 2.2954V2.3422C76.0554 37.5862 81.7013 74.729 81.835 75.4885C70.8336 79.8292 60.621 85.9488 51.606 93.6026C49.3811 105.569 49.2453 117.829 51.2047 129.841C45.4679 132.199 14.7855 146.43 0 186.504H0.105668C15.3044 229.964 49.7749 243.791 51.4147 244.406C49.7181 256.038 49.9495 267.871 52.0996 279.428V279.463H52.1343C61.5586 287.387 72.2606 293.653 83.7839 297.994C82.9345 304.814 80.5737 337.79 107.762 369.937L107.845 369.832C151.791 378.269 180.475 357.502 183.606 355.113C192.925 362.374 203.36 368.077 214.504 372C226.079 367.867 236.881 361.828 246.461 354.131C252.126 358.326 279.656 376.74 321.231 369.497L321.219 369.403C350.78 335.571 346.663 300.309 346.166 296.901C357.107 292.542 367.274 286.45 376.278 278.859V278.825C378.484 266.821 378.612 254.527 376.656 242.48C381.847 240.383 413.097 226.198 428 185.706M363.945 99.4824C364.146 100.037 378.341 139.395 348.214 181.313C333.711 148.099 302.782 138.63 299.631 137.738C299.453 137.659 299.299 137.535 299.183 137.378C301.582 126.101 301.484 114.435 298.894 103.2C296.305 91.9646 291.288 81.4318 284.195 72.3407C336.189 67.0787 363.791 99.3313 363.945 99.4864M175.098 230.671C183.355 232.737 191.954 233.049 200.339 231.586C204.426 236.225 209.141 240.27 214.348 243.603C219.741 240.602 224.473 236.543 228.258 231.669C237.412 232.909 246.724 232.19 255.578 229.559C245.654 265.868 215.962 276.094 215.35 276.343V276.309C215.35 276.309 185.542 266.518 175.098 230.671ZM131.246 237.185C153.583 255.136 179.8 252.318 179.8 252.318C179.418 251.631 179.091 250.916 178.821 250.179C153.756 249.426 135.795 231.457 135.677 231.324C135.653 231.23 128.845 204.98 140.225 185.152C139.747 184.574 139.301 183.971 138.888 183.345C129.404 197.847 125.671 215.364 128.42 232.471C93.726 217.081 88.159 186.937 88.0962 186.738C88.155 186.52 93.5949 156.214 128.42 140.737L128.88 138.302C125.63 173.24 145.844 193.215 155.044 200.412C153.432 206.989 153.095 213.814 154.053 220.518V220.59L154.065 220.576C159.654 224.954 166.055 228.181 172.899 230.071C174.428 241.408 178.74 252.19 185.45 261.456C192.161 270.721 201.062 278.182 211.358 283.172C180.605 305.145 151.552 294.89 151.339 294.797C151.245 294.739 127.454 274.864 131.325 237.222L131.246 237.185ZM201.851 130.134C205.579 127.51 209.618 125.357 213.876 123.726C218.414 125.592 222.716 127.989 226.691 130.866H226.656L226.821 130.935C234.49 136.179 240.618 143.377 244.569 151.785C235.614 149.703 226.203 151.088 218.229 155.663C206.936 148.281 194.019 148.814 184.101 150.983C187.895 142.662 193.884 135.531 201.426 130.356L201.898 130.207C201.88 130.184 201.865 130.159 201.851 130.134ZM234.644 203.033C250.116 198.06 257.066 188.002 260.004 178.823C272.335 196.217 268.371 216.823 268.297 217.101C268.109 217.235 251.08 231.142 229.827 229.56C232.492 225.621 234.282 221.159 235.08 216.472C235.878 211.785 235.664 206.981 234.453 202.383C233.035 198.19 230.574 194.426 227.302 191.444C227.713 190.728 228.07 189.984 228.372 189.217C236.042 169.596 220.606 157.336 220.606 157.336C220.158 157.011 219.781 156.779 219.38 156.491L220.158 156.928C242.839 147.751 256.481 162.169 256.481 162.169C260.186 190.041 240.054 199.265 234.165 201.306L234.644 203.033ZM159.368 203.009C160.147 194.594 162.731 183.968 169.942 175.404C172.827 186.655 180.041 196.311 190.015 202.268C189.769 204.213 189.646 206.171 189.648 208.131C189.648 208.131 189.531 217.947 198.511 229.468L198.416 229.292C176.361 231.967 159.709 217.612 159.509 217.483C158.92 212.825 158.849 208.116 159.298 203.443L159.391 203.513L159.368 203.009ZM193.272 199.926C193.272 199.926 194.652 187.723 208.01 177.964L207.798 175.825C203.29 178.559 199.405 182.206 196.391 186.531C193.377 190.856 191.301 195.763 190.297 200.938C170.56 186.702 173.86 161.339 173.86 161.339C179.179 157.656 185.247 155.194 191.628 154.129C198.01 153.063 204.549 153.42 210.776 155.174C234.933 166.427 225.74 188.492 225.74 188.492C223.758 193.36 221.492 194.623 221.492 194.623C216.676 198.574 212.606 196.228 212.606 196.228C208.346 193.98 208.77 190.387 208.77 190.387C209.078 184.637 213.326 185.137 213.326 185.137C215.198 185.271 215.391 186.192 215.391 186.192C215.49 186.396 215.539 186.62 215.534 186.846C215.529 187.072 215.471 187.294 215.364 187.493C215.256 187.692 215.103 187.863 214.917 187.991C214.731 188.119 214.517 188.202 214.293 188.232V189.193C214.717 189.162 215.126 189.027 215.485 188.799C215.843 188.57 216.139 188.256 216.346 187.885C216.529 187.547 216.641 187.176 216.673 186.793C216.706 186.41 216.66 186.025 216.537 185.661C216.414 185.297 216.217 184.962 215.959 184.678C215.701 184.393 215.387 184.165 215.037 184.007C209.963 182.222 207.578 187.35 207.578 187.35C205.62 190.897 207.673 194.86 207.673 194.86C212.051 202.322 220.501 198.661 220.501 198.661C222.794 197.273 224.746 195.388 226.212 193.145C226.589 193.457 239.535 203.274 227.298 225.238C224.878 229.699 220.359 233.7 214.246 237.118C214.246 237.118 188.756 224.6 193.265 199.943M181.074 151.803C176.655 152.966 172.374 154.602 168.306 156.682C167.882 161.883 168.184 167.117 169.204 172.234C162.976 179.828 158.358 188.609 155.633 198.043C130.815 171.772 136.444 142.414 136.551 141.745L136.562 141.758C136.562 141.758 159.421 121.616 195.294 129.739C188.988 135.958 184.133 143.492 181.074 151.803ZM130.886 136.023C126.932 98.4862 150.682 78.6444 150.746 78.5869C150.994 78.4946 180.095 68.1351 210.871 90.0964C195.077 96.4092 182.055 108.15 174.147 123.206C161.792 122.707 146.581 125.395 130.886 136.023ZM257.649 228.961C263.422 226.907 268.835 223.955 273.686 220.211L273.745 220.198C274.616 213.961 274.424 207.622 273.179 201.449C278.967 196.962 284.022 191.601 288.16 185.56C299.111 207.125 292.609 230.595 292.526 230.769C292.443 230.838 273.987 248.801 251.766 249.902C254.85 243.286 256.837 236.214 257.651 228.961M272.632 199.141C270.464 190.557 266.458 182.547 260.891 175.662C262.176 170.44 262.504 165.028 261.858 159.69C257.436 156.507 252.515 154.083 247.296 152.517C244.175 144.248 239.36 136.723 233.158 130.425C268.603 122.134 291.524 141.657 292.055 142.129L291.961 142.153C291.961 142.153 298.297 172.216 272.631 199.119M231.458 128.686C226.367 123.895 220.402 120.127 213.888 117.587C207.695 119.993 202.004 123.53 197.107 128.018C190.544 125.494 183.651 123.933 176.642 123.383C189.917 102.975 213.896 96.7144 214.086 96.6702C214.179 96.6702 240.543 103.971 252.178 123.662C252.904 123.515 253.643 123.445 254.384 123.451C246.467 108.043 233.133 96.1043 216.944 89.9306C247.731 67.8195 276.95 78.1443 277.068 78.2272C277.258 78.3877 300.928 98.2161 297.094 135.779L298.334 136.849C269.54 116.984 242.156 124.403 231.455 128.678M314.629 11.9609V11.9127C315.298 12.4931 340.745 34.6871 342.219 73.4747C310.901 62.3757 281.269 69.6047 281.115 69.5579C280.655 67.8784 272.655 40.04 245.961 18.4759C281.587 0.266827 314.629 11.9609 314.629 11.9609ZM112.59 12.4222L112.509 12.3554C135.151 6.03744 159.351 8.59028 180.176 19.4935C153.66 41.7797 146.342 69.9177 146.342 69.9177L149.906 69.221C171.205 21.7066 213.228 14.0122 213.629 13.9761C214.254 14.079 256.135 21.6478 277.541 68.9896C266.203 67.6706 254.714 68.7737 243.835 72.2261C232.956 75.6785 222.934 81.4013 214.432 89.0159C214.314 88.998 214.198 88.9634 214.09 88.913C213.846 88.9705 213.612 89.0604 213.393 89.1804C204.309 81.0665 193.495 75.1301 181.771 71.8226C170.048 68.5151 157.725 67.9235 145.739 70.0928L145.704 70.1744C125.104 65.8019 103.688 67.34 83.9256 74.6113C85.7675 34.8475 112.59 12.4222 112.59 12.4222ZM63.3579 100.281C63.5465 100.147 91.1365 67.6524 143.425 72.9652C136.388 82.07 131.44 92.6105 128.932 103.84C126.424 115.069 126.417 126.713 128.911 137.945C128.89 138.009 128.879 138.076 128.876 138.143C128.558 138.247 94.8308 147.125 79.8554 182.657C49.0205 140.714 63.1933 100.861 63.3579 100.283M51.7224 242.241C17.9956 220.75 11.8241 186.563 11.8241 186.563L11.8121 186.517C11.895 185.751 18.5507 152.931 51.5458 132.15C55.3044 152.269 64.644 170.927 78.4991 185.994C78.444 186.238 78.3539 186.472 78.2316 186.69V186.735L78.2543 186.747C78.2784 186.921 78.3721 187.037 78.4082 187.235C64.5023 202.688 55.251 221.757 51.7224 242.241ZM63.9558 272.681C63.7311 272.219 49.4284 232.653 79.7805 190.618C94.2958 224.9 126.217 234.381 128.907 235.133V235.191C129.004 235.327 129.129 235.441 129.273 235.527C126.87 246.629 126.902 258.12 129.365 269.209C131.828 280.298 136.664 290.722 143.541 299.764C91.6434 305.005 64.1096 272.878 63.9558 272.681ZM113.696 359.821H113.664C113.062 359.323 87.8554 337.373 86.1326 298.827C105.312 305.539 125.965 306.862 145.844 302.651C146.057 302.871 146.221 303.079 146.422 303.299L146.399 303.321H146.422C146.671 303.329 146.919 303.349 147.166 303.382C148.453 307.809 156.949 333.317 181.778 353.679C146.258 371.666 113.696 359.821 113.696 359.821ZM214.548 358.499C213.981 358.366 172.313 350.884 150.836 303.926C162.109 305.289 173.543 304.239 184.379 300.846C195.215 297.453 205.206 291.795 213.687 284.247C214.229 284.468 214.737 284.791 215.327 285.012L215.351 285.07C215.521 284.994 215.683 284.901 215.834 284.791C224.333 292.062 234.25 297.488 244.957 300.726C255.663 303.964 266.926 304.943 278.031 303.602C256.683 350.673 215.038 358.371 214.543 358.499M315.367 359.323L315.45 359.403C314.624 359.66 282.834 370.287 248.375 352.543C263.825 339.429 275.346 322.298 281.665 303.046C281.912 302.988 282.2 302.963 282.433 302.884C282.57 302.743 282.696 302.592 282.81 302.432C303.252 306.577 324.446 304.94 344.009 297.704C342.037 337.326 315.367 359.323 315.367 359.323ZM364.423 272.114C364.246 272.311 336.962 304.461 285.122 299.58C292.017 290.493 296.856 280.018 299.304 268.879C301.752 257.74 301.751 246.202 299.301 235.063L297.306 236.768C301.33 274.317 277.752 294.203 277.51 294.435C277.451 294.481 248.905 304.739 218.364 283.645C235.582 275.151 245.259 263.075 250.723 252.087C257 252.318 279.882 251.833 299.33 234.611H299.365C304.715 208.651 292.65 188.185 289.618 183.434C297.635 170.544 301.231 155.393 299.861 140.276C334.709 155.595 340.219 185.914 340.29 186.076C340.266 186.285 334.826 216.625 299.967 232.095L299.519 234.681C299.519 234.681 333.351 225.896 348.491 190.398C378.689 232.155 364.623 271.638 364.434 272.114M376.247 240.198C372.54 220.345 363.402 201.908 349.849 186.933C349.954 186.69 350.072 186.366 350.202 186.076C350.049 185.6 349.849 185.125 349.66 184.675C363.449 169.289 372.601 150.316 376.058 129.95C409.713 151.424 416.204 185.681 416.204 185.681L416.239 185.706C416.074 186.46 409.394 219.442 376.246 240.198" fill="#FFDBE9"/>
</svg>
